<?xml version="1.0" encoding="UTF-8" standalone="no"?>
<!DOCTYPE svg PUBLIC "-//W3C//DTD SVG 1.1//EN" "http://www.w3.org/Graphics/SVG/1.1/DTD/svg11.dtd">
<svg width="100%" height="100%" viewBox="0 0 21 28" version="1.1" xmlns="http://www.w3.org/2000/svg" xmlns:xlink="http://www.w3.org/1999/xlink" xml:space="preserve" xmlns:serif="http://www.serif.com/" style="fill-rule:evenodd;clip-rule:evenodd;stroke-linejoin:round;stroke-miterlimit:2;">
    <g transform="matrix(1,0,0,1,-600,-1427)">
        <g transform="matrix(0.15838,0,0,0.238319,359.32,324.821)">
            <g transform="matrix(7.90547,0,0,5.25373,-18329,-2255.04)">
                <path d="M2514.61,1315.53L2512.17,1315.53C2511.62,1315.53 2511.17,1315.97 2511.17,1316.53L2511.17,1330.13C2511.17,1330.68 2511.62,1331.13 2512.17,1331.13L2526.2,1331.13C2526.75,1331.13 2527.2,1330.68 2527.2,1330.13L2527.2,1316.53C2527.2,1315.97 2526.75,1315.53 2526.2,1315.53L2523.77,1315.53L2523.77,1314.66C2523.77,1312.14 2521.71,1310.08 2519.19,1310.08C2516.66,1310.08 2514.61,1312.14 2514.61,1314.66L2514.61,1315.53ZM2523.77,1317.53L2523.77,1320.59C2523.77,1321.14 2523.32,1321.59 2522.77,1321.59C2522.21,1321.59 2521.77,1321.14 2521.77,1320.59L2521.77,1317.53L2516.61,1317.53L2516.61,1320.59C2516.61,1321.14 2516.16,1321.59 2515.61,1321.59C2515.06,1321.59 2514.61,1321.14 2514.61,1320.59L2514.61,1317.53L2513.17,1317.53C2513.17,1317.53 2513.17,1329.13 2513.17,1329.13C2513.17,1329.13 2525.2,1329.13 2525.2,1329.13L2525.2,1317.53L2523.77,1317.53ZM2521.77,1315.53L2521.77,1314.66C2521.77,1313.24 2520.61,1312.08 2519.19,1312.08C2517.76,1312.08 2516.61,1313.24 2516.61,1314.66L2516.61,1315.53L2521.77,1315.53Z" style="fill:white;"/>
            </g>
        </g>
    </g>
</svg>
