<svg viewBox="0 0 21 28" xmlns="http://www.w3.org/2000/svg" fill-rule="evenodd" clip-rule="evenodd" stroke-linejoin="round" stroke-miterlimit="2"><path d="M4.837 7.53H1.78c-.687 0-1.25.55-1.25 1.251V25.81c0 .688.564 1.252 1.252 1.252h17.567c.689 0 1.252-.564 1.252-1.252V8.782c0-.702-.563-1.253-1.252-1.253h-3.043V6.44c0-3.155-2.579-5.734-5.734-5.734A5.742 5.742 0 004.837 6.44v1.09zm11.468 2.504v3.83c0 .69-.563 1.253-1.252 1.253a1.248 1.248 0 01-1.252-1.252v-3.831h-6.46v3.83c0 .69-.564 1.253-1.252 1.253a1.256 1.256 0 01-1.252-1.252v-3.831H3.034v14.524h15.062V10.034h-1.79zm-2.504-2.505V6.44a3.238 3.238 0 00-3.23-3.23 3.23 3.23 0 00-3.23 3.23v1.09h6.46z" fill="#fff"/></svg>