<?xml version="1.0" encoding="UTF-8" standalone="no"?>
<!DOCTYPE svg PUBLIC "-//W3C//DTD SVG 1.1//EN" "http://www.w3.org/Graphics/SVG/1.1/DTD/svg11.dtd">
<svg width="100%" height="100%" viewBox="0 0 31 31" version="1.1" xmlns="http://www.w3.org/2000/svg" xmlns:xlink="http://www.w3.org/1999/xlink" xml:space="preserve" xmlns:serif="http://www.serif.com/" style="fill-rule:evenodd;clip-rule:evenodd;stroke-linejoin:round;stroke-miterlimit:2;">
    <g transform="matrix(1,0,0,1,-794,-5259)">
        <g transform="matrix(0.225114,0,0,0.338527,-0.665851,1703.07)">
            <g id="email.svg" transform="matrix(0.261719,0,0,0.174037,3600.67,10548.7)">
                <g transform="matrix(1,0,0,1,-256,-256)">
                    <clipPath id="_clip1">
                        <rect x="0" y="0" width="512" height="512"/>
                    </clipPath>
                    <g clip-path="url(#_clip1)">
                        <g>
                            <g>
                                <path d="M339.392,258.624L512,367.744L512,144.896L339.392,258.624Z" style="fill:white;fill-rule:nonzero;"/>
                            </g>
                        </g>
                        <g>
                            <g>
                                <path d="M0,144.896L0,367.744L172.608,258.624L0,144.896Z" style="fill:white;fill-rule:nonzero;"/>
                            </g>
                        </g>
                        <g>
                            <g>
                                <path d="M480,80L32,80C16.032,80 3.36,91.904 0.96,107.232L256,275.264L511.04,107.232C508.64,91.904 495.968,80 480,80Z" style="fill:white;fill-rule:nonzero;"/>
                            </g>
                        </g>
                        <g>
                            <g>
                                <path d="M310.08,277.952L264.8,307.776C262.112,309.536 259.072,310.4 256,310.4C252.928,310.4 249.888,309.536 247.2,307.776L201.92,277.92L1.024,404.992C3.488,420.192 16.096,432 32,432L480,432C495.904,432 508.512,420.192 510.976,404.992L310.08,277.952Z" style="fill:white;fill-rule:nonzero;"/>
                            </g>
                        </g>
                    </g>
                </g>
            </g>
        </g>
    </g>
</svg>
