<?xml version="1.0" encoding="UTF-8" standalone="no"?>
<!DOCTYPE svg PUBLIC "-//W3C//DTD SVG 1.1//EN" "http://www.w3.org/Graphics/SVG/1.1/DTD/svg11.dtd">
<svg width="100%" height="100%" viewBox="0 0 32 32" version="1.1" xmlns="http://www.w3.org/2000/svg" xmlns:xlink="http://www.w3.org/1999/xlink" xml:space="preserve" xmlns:serif="http://www.serif.com/" style="fill-rule:evenodd;clip-rule:evenodd;stroke-linejoin:round;stroke-miterlimit:2;">
    <g transform="matrix(1,0,0,1,-867,-5312)">
        <g transform="matrix(0.225114,0,0,0.338527,-0.665851,1703.07)">
            <g id="facebook-circular-logo.svg" transform="matrix(0.271484,0,0,0.180531,3924.44,10709)">
                <g transform="matrix(1,0,0,1,-256,-256)">
                    <g>
                        <g>
                            <path d="M256.002,1.066C114.617,1.066 0,115.683 0,257.067C0,383.873 92.294,488.888 213.306,509.224L213.306,310.476L151.551,310.476L151.551,238.955L213.306,238.955L213.306,186.218C213.306,125.028 250.679,91.683 305.272,91.683C331.42,91.683 353.89,93.631 360.413,94.489L360.413,158.449L322.548,158.468C292.865,158.468 287.142,172.57 287.142,193.272L287.142,238.918L357.97,238.918L348.732,310.44L287.142,310.44L287.142,510.934C413.803,495.518 512,387.827 512,256.994C512,115.683 397.383,1.066 256.002,1.066Z" style="fill:white;fill-rule:nonzero;"/>
                        </g>
                    </g>
                </g>
            </g>
        </g>
    </g>
</svg>
