<?xml version="1.0" encoding="UTF-8" standalone="no"?>
<!DOCTYPE svg PUBLIC "-//W3C//DTD SVG 1.1//EN" "http://www.w3.org/Graphics/SVG/1.1/DTD/svg11.dtd">
<svg width="100%" height="100%" viewBox="0 0 31 31" version="1.1" xmlns="http://www.w3.org/2000/svg" xmlns:xlink="http://www.w3.org/1999/xlink" xml:space="preserve" xmlns:serif="http://www.serif.com/" style="fill-rule:evenodd;clip-rule:evenodd;stroke-linejoin:round;stroke-miterlimit:2;">
    <g transform="matrix(1,0,0,1,-99,-5281)">
        <g transform="matrix(0.225114,0,0,0.338527,-0.665851,1703.07)">
            <g id="phone-icon.svg" transform="matrix(0.266501,0,0,0.177217,510.96,10615.3)">
                <g transform="matrix(1,0,0,1,-256,-256)">
                    <clipPath id="_clip1">
                        <rect x="0" y="0" width="512" height="512"/>
                    </clipPath>
                    <g clip-path="url(#_clip1)">
                        <path d="M498.808,377.784L435.175,314.137C418.197,297.159 388.534,297.13 371.528,314.137L360.917,324.748L488.201,452.025L498.808,441.418C516.427,423.798 516.368,395.314 498.808,377.784ZM339.116,345.37C325.726,355.743 306.624,355.329 294.389,343.067L168.572,217.163C156.309,204.9 155.896,185.784 166.269,172.427L39.278,45.443C-15.353,109.123 -13.217,205.076 47.078,265.371L246.181,464.561C304.041,522.419 398.816,530.093 466.113,472.358L339.116,345.37ZM197.503,76.391L133.87,12.744C116.892,-4.234 87.229,-4.263 70.223,12.744L59.612,23.355L186.896,150.632L197.503,140.024C215.121,122.406 215.063,93.922 197.503,76.391Z" style="fill:white;fill-rule:nonzero;"/>
                    </g>
                </g>
            </g>
        </g>
    </g>
</svg>
