<svg viewBox="0 0 174 49" xmlns="http://www.w3.org/2000/svg" fill-rule="evenodd" clip-rule="evenodd" stroke-linejoin="round" stroke-miterlimit="2"><path d="M.49 25.364v-.134c0-12.56 9.604-23.171 23.137-23.171 6.716 0 11.182 1.612 15.312 4.567a3.992 3.992 0 011.612 3.19 3.898 3.898 0 01-3.895 3.895c-1.041 0-1.814-.436-2.418-.906-2.888-2.082-6.044-3.526-10.88-3.526-8.294 0-14.574 7.253-14.574 15.816v.135c0 9.234 6.078 16.051 15.246 16.051 4.23 0 8.092-1.343 10.812-3.392v-8.395h-8.831c-1.914 0-3.526-1.477-3.526-3.391s1.612-3.46 3.526-3.46h12.525c2.25 0 3.963 1.714 3.963 3.963v11.989c0 2.25-.907 3.861-2.754 5.003-3.862 2.586-9.234 4.87-15.95 4.87C9.724 48.4.49 38.392.49 25.363M49.517 4.376A3.848 3.848 0 0153.312.514h.067c2.183 0 3.895 1.713 3.895 3.862v39.692c0 2.183-1.712 3.862-3.895 3.862a3.848 3.848 0 01-3.862-3.795V4.376zm13.768 26.562v-.134c0-9.671 7.657-17.663 18.033-17.663 10.376 0 18 7.891 18 17.562v.135c0 9.604-7.657 17.63-18.134 17.63-10.276-.068-17.899-7.926-17.899-17.53m28.309 0v-.134c0-5.944-4.299-10.914-10.377-10.914-6.246 0-10.175 4.87-10.175 10.746v.134c0 5.91 4.299 10.813 10.31 10.813 6.245.067 10.242-4.835 10.242-10.645m27.099 17.328h-.37c-2.149 0-3.525-1.343-4.432-3.392l-11.283-25.79c-.202-.57-.437-1.242-.437-1.914 0-1.914 1.713-3.727 3.862-3.727 2.15 0 3.19 1.242 3.862 2.82l8.697 22.432 8.866-22.566c.57-1.343 1.611-2.72 3.66-2.72 2.149 0 3.76 1.612 3.76 3.728 0 .705-.234 1.477-.436 1.847l-11.283 25.89c-.94 2.015-2.317 3.392-4.466 3.392M137.7 30.938v-.134c0-9.671 7.656-17.663 18.032-17.663 10.377 0 18 7.891 18 17.562v.135c0 9.604-7.657 17.63-18.134 17.63-10.31-.068-17.898-7.926-17.898-17.53m28.308 0v-.134c0-5.944-4.298-10.914-10.376-10.914-6.246 0-10.175 4.87-10.175 10.746v.134c0 5.91 4.298 10.813 10.342 10.813 6.213.067 10.209-4.835 10.209-10.645" fill="#00a082" fill-rule="nonzero"/></svg>