<?xml version="1.0" encoding="UTF-8" standalone="no"?>
<!DOCTYPE svg PUBLIC "-//W3C//DTD SVG 1.1//EN" "http://www.w3.org/Graphics/SVG/1.1/DTD/svg11.dtd">
<svg width="100%" height="100%" viewBox="0 0 174 49" version="1.1" xmlns="http://www.w3.org/2000/svg" xmlns:xlink="http://www.w3.org/1999/xlink" xml:space="preserve" xmlns:serif="http://www.serif.com/" style="fill-rule:evenodd;clip-rule:evenodd;stroke-linejoin:round;stroke-miterlimit:2;">
    <g transform="matrix(1,0,0,1,-758,-309)">
        <g transform="matrix(0.213675,0,0,0.213675,1890.24,-707.23)">
            <g transform="matrix(1.57157,0,0,1.57157,-5089.15,4396.75)">
                <path d="M-132,304.1L-132,303.7C-132,266.3 -103.4,234.7 -63.1,234.7C-43.1,234.7 -29.8,239.5 -17.5,248.3C-14.5,250.5 -12.7,254.1 -12.7,257.8C-12.7,264.2 -17.9,269.4 -24.3,269.4C-27.4,269.4 -29.7,268.1 -31.5,266.7C-40.1,260.5 -49.5,256.2 -63.9,256.2C-88.6,256.2 -107.3,277.8 -107.3,303.3L-107.3,303.7C-107.3,331.2 -89.2,351.5 -61.9,351.5C-49.3,351.5 -37.8,347.5 -29.7,341.4L-29.7,316.4L-56,316.4C-61.7,316.4 -66.5,312 -66.5,306.3C-66.5,300.6 -61.7,296 -56,296L-18.7,296C-12,296 -6.9,301.1 -6.9,307.8L-6.9,343.5C-6.9,350.2 -9.6,355 -15.1,358.4C-26.6,366.1 -42.6,372.9 -62.6,372.9C-104.5,372.7 -132,342.9 -132,304.1M14,241.6C14,235.3 19,230.2 25.3,230.1L25.5,230.1C32,230.1 37.1,235.2 37.1,241.6L37.1,359.8C37.1,366.3 32,371.3 25.5,371.3C19.2,371.3 14.1,366.3 14,360L14,241.6ZM55,320.7L55,320.3C55,291.5 77.8,267.7 108.7,267.7C139.6,267.7 162.3,291.2 162.3,320L162.3,320.4C162.3,349 139.5,372.9 108.3,372.9C77.7,372.7 55,349.3 55,320.7M139.3,320.7L139.3,320.3C139.3,302.6 126.5,287.8 108.4,287.8C89.8,287.8 78.1,302.3 78.1,319.8L78.1,320.2C78.1,337.8 90.9,352.4 108.8,352.4C127.4,352.6 139.3,338 139.3,320.7M220,372.3L218.9,372.3C212.5,372.3 208.4,368.3 205.7,362.2L172.1,285.4C171.5,283.7 170.8,281.7 170.8,279.7C170.8,274 175.9,268.6 182.3,268.6C188.7,268.6 191.8,272.3 193.8,277L219.7,343.8L246.1,276.6C247.8,272.6 250.9,268.5 257,268.5C263.4,268.5 268.2,273.3 268.2,279.6C268.2,281.7 267.5,284 266.9,285.1L233.3,362.2C230.5,368.2 226.4,372.3 220,372.3M276.6,320.7L276.6,320.3C276.6,291.5 299.4,267.7 330.3,267.7C361.2,267.7 383.9,291.2 383.9,320L383.9,320.4C383.9,349 361.1,372.9 329.9,372.9C299.2,372.7 276.6,349.3 276.6,320.7M360.9,320.7L360.9,320.3C360.9,302.6 348.1,287.8 330,287.8C311.4,287.8 299.7,302.3 299.7,319.8L299.7,320.2C299.7,337.8 312.5,352.4 330.5,352.4C349,352.6 360.9,338 360.9,320.7" style="fill:rgb(0,160,130);fill-rule:nonzero;"/>
            </g>
        </g>
    </g>
</svg>
