<?xml version="1.0" encoding="UTF-8" standalone="no"?>
<!DOCTYPE svg PUBLIC "-//W3C//DTD SVG 1.1//EN" "http://www.w3.org/Graphics/SVG/1.1/DTD/svg11.dtd">
<svg width="100%" height="100%" viewBox="0 0 31 49" version="1.1" xmlns="http://www.w3.org/2000/svg" xmlns:xlink="http://www.w3.org/1999/xlink" xml:space="preserve" xmlns:serif="http://www.serif.com/" style="fill-rule:evenodd;clip-rule:evenodd;stroke-linejoin:round;stroke-miterlimit:2;">
    <g transform="matrix(1,0,0,1,-929,-291)">
        <g transform="matrix(0.213675,0,0,0.213675,1890.24,-707.23)">
            <g transform="matrix(1.57157,0,0,1.57157,-5089.15,4396.75)">
                <path d="M422.6,176.2C397.6,176.2 377.3,196.5 377.3,221.5C377.3,231 380.2,240.2 385.8,247.9L387,249.6L410.6,283C410.6,283 413.5,287.8 419.8,287.8L425.5,287.8C431.7,287.8 434.7,283 434.7,283L458.3,249.6L459.5,247.9C465.1,240.1 468.1,231 468.1,221.5C467.9,196.4 447.6,176.2 422.6,176.2M441.2,234.9L440,236.6L422.7,261.2L405.2,236.6L404,234.8C401.2,230.8 399.6,226.2 399.6,221.4C399.6,208.7 409.8,198.5 422.5,198.4L422.6,198.4C435.3,198.4 445.5,208.6 445.6,221.3L445.6,221.4C445.5,226.2 444,231 441.2,234.9M409.9,308.1C409.9,301.3 415.3,295.6 422.5,295.6C429.8,295.6 435.1,301.1 435.1,307.9L435.1,308C435.1,314.7 429.7,320.3 422.4,320.3C415.1,320.3 409.9,314.8 409.9,308.1" style="fill:rgb(255,204,27);fill-rule:nonzero;"/>
            </g>
        </g>
    </g>
</svg>
