<svg viewBox="0 0 31 49" xmlns="http://www.w3.org/2000/svg" fill-rule="evenodd" clip-rule="evenodd" stroke-linejoin="round" stroke-miterlimit="2"><path d="M15.727.414C7.332.414.515 7.231.515 15.626c0 3.19.974 6.28 2.855 8.866l.402.57 7.925 11.216s.974 1.612 3.09 1.612H16.7c2.082 0 3.09-1.612 3.09-1.612l7.924-11.215.403-.571c1.88-2.62 2.888-5.675 2.888-8.866C30.94 7.198 24.122.414 15.727.414m6.246 19.712l-.403.571-5.81 8.26-5.876-8.26-.403-.604c-.94-1.344-1.477-2.888-1.477-4.5 0-4.265 3.425-7.69 7.69-7.724h.033c4.265 0 7.69 3.426 7.724 7.69v.034c-.034 1.612-.538 3.224-1.478 4.533m-10.51 24.581a4.185 4.185 0 014.23-4.197c2.452 0 4.232 1.847 4.232 4.13v.034c0 2.25-1.814 4.13-4.265 4.13-2.451 0-4.198-1.847-4.198-4.097" fill="#ffcc1b" fill-rule="nonzero"/></svg>