<?xml version="1.0" encoding="UTF-8" standalone="no"?>
<!DOCTYPE svg PUBLIC "-//W3C//DTD SVG 1.1//EN" "http://www.w3.org/Graphics/SVG/1.1/DTD/svg11.dtd">
<svg width="100%" height="100%" viewBox="0 0 2434 1435" version="1.1" xmlns="http://www.w3.org/2000/svg" xmlns:xlink="http://www.w3.org/1999/xlink" xml:space="preserve" xmlns:serif="http://www.serif.com/" style="fill-rule:evenodd;clip-rule:evenodd;stroke-linejoin:round;stroke-miterlimit:2;">
    <g id="Слой_x0020_1" transform="matrix(1,0,0,1,-234.666,-8.18431)">
        <g id="_2637632650336">
            <path d="M1371.17,408.699C1345.18,427.805 1342.38,469.871 1402.81,497.906C1403.91,498.416 1403.69,498.586 1404.26,497.565C1435.32,443.764 1486.77,369.666 1558.04,391.72C1573.85,396.624 1585.67,406.261 1593.5,418.876C1594.74,420.917 1594.26,421.03 1595.68,419.046C1658.52,330.066 1634.46,329.953 1737.38,329.981C1743.02,329.981 1742.17,329.017 1742.17,334.602C1742.17,340.129 1742.2,345.657 1742.2,351.184C1742.2,353.14 1741.98,353.282 1743.05,351.553C1749.66,341.093 1756.26,330.661 1762.84,320.202C1765.59,315.865 1764.82,316.885 1770.12,316.885C1855.47,316.885 1951.45,295.285 1998.71,384.945C2000.01,387.411 1999.76,387.836 2000.3,385.002C2001.83,377.15 2008.21,375.619 2015.21,371.083C2071.11,334.913 2093.05,297.751 2133.18,246.728C2134.2,245.452 2133.98,245.48 2134.12,247.096C2136.98,279.241 2139.82,311.414 2142.68,343.559C2145.23,372.331 2148.63,401.272 2153.2,430.072C2154.44,437.868 2153.59,437.074 2157.19,430.809C2168.65,410.91 2185.6,395.15 2209.75,391.039C2237.47,386.334 2263.07,399.402 2283.87,416.494C2302.7,431.972 2319.39,451.701 2334.02,471.146C2352.5,495.666 2368.63,521.263 2384.19,547.512C2391.28,524.608 2409.22,511.03 2433.54,507.288C2454.8,504.057 2479.07,506.154 2500.3,508.932C2512.18,510.491 2524.05,512.05 2535.93,513.609C2535.48,525.458 2535.02,537.307 2534.6,549.156C2530.46,658.687 2526.35,768.189 2522.18,877.72C2521.9,884.976 2521.62,892.261 2521.36,899.518C2521.22,902.636 2520.71,902.069 2523.06,903.94C2560,933.449 2595.37,965.112 2629.22,998.391C2637.87,1006.89 2646.51,1015.4 2655.16,1023.87C2689.2,1064.35 2649.46,1104.52 2607.99,1079.24C2598.24,1072.04 2588.46,1064.86 2578.71,1057.66C2249.01,814.819 1898.31,786.784 1528.55,959.131C1409.95,1022.6 1298.18,1100.13 1185.45,1173.4C1037.25,1269.72 881.178,1364.32 709.512,1411.77C625.493,1434.98 539.802,1446.12 452.608,1442.47C-154.573,1353.74 712.176,1443.71 594.369,854.702C590.485,835.257 583.002,816.208 576.85,797.386C567.921,770.23 562.592,744.265 562.989,715.521C563.953,649.106 584.702,629.235 604.006,571.691C607.039,562.677 615.713,533.48 612.283,524.211C604.998,510.917 592.809,497.537 582.406,486.595C556.583,459.553 531.298,431.773 508.734,401.896C476.419,359.093 465.534,330.265 469.616,276.038C470.239,267.817 471.487,259.654 473.754,251.745C462.387,256.309 450.935,260.759 439.483,265.124C337.068,304.044 346.791,314.135 389.679,213.335C416.296,150.803 445.691,89.008 479.395,29.962C494.447,3.572 487.417,7.143 517.606,10.488C590.23,18.595 665.546,29.679 736.044,49.266C844.101,79.313 842.372,65.367 744.888,120.813C722.636,133.455 588.643,197.66 614.239,199.106C713.055,199.304 811.899,199.502 910.715,199.701C989.631,199.757 1068.58,199.843 1147.49,199.928C1180.63,202.252 1219.49,204.009 1270.94,172.602C1297.84,150.86 1321.62,131.641 1348.55,109.899C1350.51,108.312 1355.58,108.17 1357.96,109.531C1489.83,184.791 1463.5,338.513 1371.17,408.699Z"/>
            <path d="M513.298,49.294C483.449,101.622 454.224,161.405 425.622,228.614C527.641,189.836 627.619,142.611 725.584,86.882C669.827,71.376 599.074,58.847 513.298,49.294Z" style="fill:rgb(245,214,121);"/>
            <path d="M514.772,1359.33C485.15,1353.57 458.391,1345.07 434.494,1333.79C418.054,1343.91 399.657,1353.37 379.332,1362.27C359.32,1371.01 337.408,1379.14 313.654,1386.71C356.287,1395.72 403.143,1401.34 454.252,1403.46C858.076,1420.41 1174.45,1104.09 1511.09,924.18C1897.82,743.584 2262.87,776.523 2601.87,1026.23C2289.09,718.753 1931.53,638.277 1529.15,847.672C1267.96,983.594 891.581,1363.69 612.595,1368.37L612.595,1368C612.567,1372 523.644,1361.06 514.772,1359.33Z" style="fill:rgb(245,214,121);"/>
            <path d="M841.266,1096.58C828.283,1166.37 815.811,1230.69 803.792,1289.51C816.265,1281.32 827.461,1274.43 837.383,1268.87C847.446,1263.23 856.205,1258.92 863.66,1255.95C862.668,1241.21 862.157,1228.14 862.157,1216.74C862.157,1205.29 862.668,1195.51 863.688,1187.43L863.717,1187.26L863.83,1187.18C883.304,1172.41 901.077,1159.8 917.15,1149.31C933.109,1138.93 947.395,1130.65 960.009,1124.5C956.466,1116.17 953.575,1107.78 951.279,1099.3C949.039,1090.91 947.367,1082.47 946.346,1073.93C936.539,1081.25 925.398,1088.7 912.926,1096.33C900.227,1104.07 886.139,1112 870.661,1120.05L870.009,1120.39L870.123,1119.66C876.529,1080.23 882.482,1042.58 888.038,1006.72C893.565,970.923 898.639,937.02 903.231,905.074L903.288,904.762L903.6,904.762C914.145,904.564 925.03,904.082 936.227,903.26L936.567,903.26L936.624,903.572C957.402,1011.2 982.035,1102.48 1010.58,1177.43C1024.24,1164.73 1035.44,1154.49 1044.2,1146.76C1052.82,1139.07 1059.02,1133.83 1062.85,1131C1038.42,1087.65 1018.03,1038.02 1001.71,982.12C985.351,926.192 973.077,863.972 964.857,795.458L945.836,794.268L939.515,802.97L939.515,802.998C931.323,815.329 922.394,827.036 912.756,838.176C903.118,849.288 892.772,859.805 881.717,869.726C867.77,950.825 854.277,1026.45 841.266,1096.58Z" style="fill:rgb(245,214,121);"/>
            <path d="M1103.13,800.901L1097.72,1110.78L1155.32,1066.39L1154.81,849.657L1103.13,800.901Z" style="fill:rgb(245,214,121);"/>
            <path d="M1143.35,801.043C1168.5,827.15 1192.11,855.836 1214.19,887.074C1236.19,918.198 1256.68,951.874 1275.68,988.072C1291.27,972.539 1307.25,961.285 1323.67,954.312C1324.32,876.614 1326.78,730.063 1331.07,514.715C1321.09,528.917 1309.86,543.487 1297.39,558.482C1284.72,573.676 1270.74,589.294 1255.49,605.31C1268.39,609.846 1277.58,620.759 1283.07,638.107C1291.92,666.113 1291.92,844.072 1285.26,851.216C1282.76,853.88 1278.62,852.151 1272.84,846.057L1272.81,846C1241.29,802.205 1214.13,766.715 1191.32,739.531C1168.5,712.346 1150.04,693.468 1135.93,682.923L1135.9,682.894C1126.6,674.249 1118.01,669.26 1110.1,667.956C1102.22,666.652 1095,669.005 1088.45,674.986L1088.42,675.014C1080.71,680.74 1072.26,690.321 1063.05,703.729C1053.95,716.995 1044.09,734.003 1033.48,754.781C1053.3,750.586 1072.32,752.287 1090.55,759.883C1108.97,767.565 1126.57,781.285 1143.35,801.043Z" style="fill:rgb(245,214,121);"/>
            <path d="M1546.5,429.024C1455.85,400.989 1291.04,710.702 1456.55,697.323C1516.79,695.877 1555.03,733.323 1523.65,789.364C1517.5,801.043 1508.91,810.765 1497.91,818.532C1476.96,833.357 1432.15,852.69 1430.67,810.198C1430.82,803.906 1429.48,801.213 1427.81,798.86C1426.62,797.187 1425.29,796.224 1423.81,795.969C1403.07,792.454 1373.07,878.513 1377.5,913.861C1393.94,902.778 1414.86,888.69 1440.31,871.625C1501.06,830.863 1567.19,797.924 1584.99,719.887C1608.58,616.62 1538.67,609.194 1456.75,610.157C1455.53,610.186 1454.03,609.931 1453.04,609.562C1398.73,587.083 1442.41,447.024 1505.03,488.976C1513.13,494.419 1517.56,503.49 1518.21,516.217L1565.46,456.293C1564.07,441.581 1557.75,432.51 1546.5,429.024Z" style="fill:rgb(245,214,121);"/>
            <path d="M1644.83,469.02C1645.09,519.194 1645.23,569.169 1645.23,618.973C1645.23,668.523 1645.09,718.271 1644.86,768.217C1652.88,762.917 1661.73,758.211 1671.36,754.101C1681.14,749.934 1691.75,746.362 1703.2,743.414C1703.28,681.732 1703.31,619.313 1703.31,556.157C1703.31,493.03 1703.28,430.639 1703.2,369.014L1679.02,369.014L1608.35,468.652C1614.22,468.822 1620.11,468.879 1626.04,468.879C1632.22,468.879 1638.37,468.794 1644.46,468.652L1644.83,468.624L1644.83,469.02Z" style="fill:rgb(245,214,121);"/>
            <path d="M1732.05,442.176L1786.65,441.184L1786.65,716.598L1843.26,713.169L1842.75,430.894C1951.57,402.973 1932.89,549.893 1891.62,582.038C1891.11,582.463 1890.6,582.86 1890.09,583.228L1869.16,599.528C1867.27,601.767 1867.04,606.104 1867.98,608.031C1868.14,609.307 1868.6,610.243 1869.34,610.781C1870.1,611.348 1871.15,611.518 1872.54,611.348C1927.47,604.375 2053.05,414.198 1906.84,355.918L1786.48,355.918L1732.05,442.176Z" style="fill:rgb(245,214,121);"/>
            <path d="M2036.44,403.852C2019.74,490.45 1991.11,590.967 1950.58,705.373C1961.01,705.657 1970.93,705.657 1980.34,705.402C1989.75,705.175 1998.65,704.665 2007.01,703.928C2006.11,689.471 2006.76,678.813 2009.03,672.009L2009.11,671.754L2009.39,671.754C2039.78,671.499 2062.94,671.244 2078.79,670.989C2093.27,670.762 2101.66,670.535 2103.99,670.337C2099.74,661.918 2096.05,653.811 2092.93,646.044C2089.81,638.22 2087.24,630.709 2085.25,623.537L2016.85,624.047L2016.93,623.594C2023.12,590.74 2028.67,561.572 2033.6,536.06C2038.56,510.548 2042.87,488.636 2046.61,470.296L2046.67,470.013L2073.18,470.013L2073.18,470.381L2073.54,470.324C2078.99,499.663 2087.18,533.906 2098.15,573.052C2109.09,612.142 2122.78,656.107 2139.22,704.948C2154.56,709.115 2169.41,713.424 2183.78,717.874C2197.81,722.183 2211.36,726.633 2224.46,731.197C2191.69,686.75 2165.24,632.551 2145.15,568.658C2124.99,504.567 2111.19,430.668 2103.79,346.989C2096.73,355.918 2087.69,365.074 2076.66,374.428C2065.35,384.009 2051.94,393.817 2036.44,403.852Z" style="fill:rgb(245,214,121);"/>
            <path d="M2349.44,651.515C2367.89,690.746 2382.92,730.035 2391.08,762.321L2391.08,762.35C2396.86,785.197 2399.22,804.557 2396.92,817.937L2396.86,818.22L2397.15,818.334C2414.04,825.704 2429.6,834.151 2443.83,843.704C2458.06,853.228 2470.99,863.887 2482.55,875.622L2483.18,876.217C2487.35,766.715 2491.45,657.213 2495.57,547.682L2495.25,547.654C2471.02,544.479 2452.42,543.912 2439.44,545.896C2426.34,547.88 2422.69,553.72 2420.96,560.976L2420.96,561.005C2416.56,583.597 2473.17,748.602 2442.93,744.435C2440.69,744.123 2438.11,740.069 2435.22,732.331L2435.22,732.302C2412.54,680.173 2386.89,629.575 2358.28,580.507C2339.21,547.767 2228.85,352.403 2185.28,462.302C2183.81,467.235 2204.48,466.639 2207.91,466.554C2238.69,465.959 2306.41,560.069 2349.44,651.515Z" style="fill:rgb(245,214,121);"/>
            <path d="M2299.04,768.217C2299.86,705.317 2299.69,649.587 2298.53,601.058C2294.96,596.494 2289.4,589.011 2281.89,578.636C2274.46,568.375 2265.08,555.25 2253.74,539.263L2250.31,746.986C2260.97,748.97 2270.41,751.748 2278.6,755.348C2286.57,758.863 2293.4,763.143 2299.04,768.217Z" style="fill:rgb(245,214,121);"/>
            <path d="M1161.52,275.329L1161.58,280.97C1151.66,340.271 1117.64,375.165 1055.88,383.131C998.135,390.586 924.69,364.961 871.54,344.211L828.51,327.458C801.468,325.502 771.817,324.737 743.272,325.729L743.272,334.375C743.272,359.376 745.342,385.37 748.12,410.23C750.643,432.879 754.044,457.597 760.224,479.594L760.252,479.707L760.309,479.877C760.507,480.643 760.706,481.436 760.904,482.23L994.592,482.513L992.835,494.901C991.672,503.065 989.376,511.2 985.209,518.372C982.29,550.375 972.595,566.872 938.551,576.935C914.117,584.135 885.231,582.236 860.343,578.324C835.285,575.348 809.065,573.449 783.609,574.696L783.666,575.546L782.589,575.575C784.517,662.57 784.715,750.246 780.094,837.099C774.454,943.115 751.918,1047.2 743.698,1152.96C741.005,1187.58 739.134,1222.58 739.559,1257.31L739.559,1257.7C739.332,1267.45 740.183,1278.4 744.208,1287.38C747.099,1293.9 751.436,1298.89 757.701,1302.27L773.66,1310.85L758.608,1320.92C716.088,1349.35 511.739,1358.08 457.597,1327.92L440.759,1318.54L457.483,1308.95C626.995,1212.01 668.891,1028.24 632.636,847.049C628.356,825.534 620.731,805.946 613.928,785.225C606.331,762.009 601.682,740.721 602.022,716.088C602.362,692.504 607.011,669.515 615.373,647.461C615.373,647.433 615.402,647.376 615.43,647.32L615.487,647.15L615.543,647.008C629.575,614.183 665.291,539.887 646.696,505.757C637.71,489.26 623.537,473.187 610.639,459.666C586.091,433.928 561.345,406.8 539.887,378.397C513.298,343.134 505.191,323.66 508.564,278.986C509.074,271.899 510.236,264.331 512.929,257.754L513.014,257.584L513.014,257.556C513.326,256.847 513.638,256.139 513.978,255.43C519.307,238.932 528.463,217.474 546.775,212.57C566.561,207.269 585.468,224.135 598.11,238.11L910.658,238.734L1158.12,238.961L1160.31,246.983C1162.94,256.564 1163.57,266.173 1161.52,275.329Z" style="fill:rgb(254,254,254);"/>
            <path d="M735.307,605.906C732.983,576.737 729.496,549.014 724.847,522.765L724.847,522.737C708.548,460.176 677.679,404.646 636.009,355.408C632.721,351.978 622.998,343.531 625.181,338.173C625.861,336.557 627.364,335.225 629.688,334.176C690.406,306.964 833.357,311.613 900.935,325.757C943.172,330.548 981.524,331.654 1016.02,329.102C1050.52,326.551 1081.16,320.343 1107.95,310.422L1108.06,310.791L1107.95,310.422C1125.84,304.243 1138.25,296.079 1145.2,285.931C1152.09,275.868 1153.64,263.849 1149.82,249.846L910.658,249.619L596.693,248.995C582.18,245.962 564.718,243.241 549.865,244.828C538.186,246.076 530.277,249.931 526.167,256.394L526.139,256.45C524.976,257.868 523.956,259.654 523.049,261.751C523.049,261.808 523.02,261.836 523.02,261.893C521.178,266.343 519.959,272.324 519.42,279.78C516.246,321.874 523.389,338.457 548.589,371.82C564.831,393.335 588.132,420.123 618.52,452.154C635.953,470.239 648.539,486.397 656.249,500.542C677.282,539.178 642.501,611.688 625.55,651.288C617.443,672.69 613.247,694.346 612.907,716.23C612.17,767.225 633.798,797.272 643.323,844.894C680.315,1029.83 637.313,1218.64 462.898,1318.39C499.351,1338.72 538.894,1339.62 578.778,1339.12C598.337,1304.39 619.002,1266.61 633.912,1234.94C656.986,1185.9 696.331,1089.1 710.419,1038.9C721.191,1000.57 729.78,959.074 736.243,914.4C740.154,885.543 742.309,853.087 742.734,817.03C743.386,761.613 739.871,663.619 735.307,605.906Z" style="fill:rgb(234,28,48);"/>
            <path d="M549.865,244.828C563.301,243.383 578.863,245.48 592.469,248.117C557.008,207.609 536.145,220.337 522.85,262.29C523.446,261.128 525.345,257.443 526.139,256.45L526.167,256.394C530.277,249.931 538.186,246.076 549.865,244.828Z" style="fill:rgb(116,56,45);"/>
            <path d="M730.97,326.948C718.554,325.871 705.231,326.353 691.058,328.394C676.913,330.435 661.861,334.006 645.959,339.137C749.849,461.934 756.028,537.647 758.353,677.594C759.146,724.592 758.75,781.965 757.134,849.77L757.134,849.798C753.449,888.576 746.362,934.724 735.902,988.243C727.455,1031.47 672.803,1212.01 669.912,1258.47C668.268,1284.78 674.901,1312.64 686.126,1333.53C719.065,1328.8 742.252,1322.13 755.291,1313.43C747.071,1309.01 738.227,1300.76 734.258,1291.83C730.205,1282.71 728.334,1271.25 728.674,1257.45L728.674,1257.42C728.306,1227.57 729.694,1192.48 732.841,1152.14C741.146,1045.05 763.597,942.52 769.238,836.504C773.235,761.443 773.972,670.932 771.449,564.945L771.846,564.945L771.789,564.576C796.904,562.394 826.951,563.386 861.874,567.553C892.29,572.343 916.838,572.003 935.49,566.476C953.717,561.118 966.331,550.772 973.332,535.521C953.036,544.479 925.569,549.836 890.929,551.537C855.808,553.266 813.288,551.282 763.37,545.528L763.03,545.499L763.058,545.131C760.819,522.34 755.036,503.518 749.735,482.542C738.652,443.14 730.942,364.791 730.97,326.948Z" style="fill:rgb(116,56,45);"/>
            <path d="M905.839,532.517C936.227,531.694 954.709,529.54 961.285,526.054L961.313,526.025C967.068,523.474 971.688,519.42 975.146,513.921C978.576,508.507 980.872,501.647 982.063,493.37L767.424,493.115C770.117,500.967 772.441,508.054 774.397,514.346C776.324,520.639 777.883,526.195 779.046,530.957C833.187,532.828 875.452,533.339 905.839,532.517Z" style="fill:rgb(234,28,48);"/>
            <path d="M1054.49,372.331C1099.76,366.491 1130.65,343.304 1147.15,302.769C1126.26,321.449 1093.24,333.723 1048.05,339.534C1002.61,345.402 945.496,341.206 875.48,334.091C949.805,363.061 1009.08,378.198 1054.49,372.331Z" style="fill:rgb(116,56,45);"/>
            <path d="M991.332,543.373L896.457,649.928C900.907,650.523 905.357,651.005 909.808,651.345C914.428,651.685 919.02,651.883 923.584,651.912L991.332,543.373Z" style="fill:rgb(245,214,121);"/>
            <path d="M994.932,545.726C990.17,555.449 971.66,596.268 946.687,650.778C950.712,650.353 954.709,649.814 958.734,649.134C962.844,648.454 966.983,647.631 971.121,646.668C982.148,594.964 992.494,555.534 994.932,545.726Z" style="fill:rgb(245,214,121);"/>
            <path d="M1004.94,547.03C1002.84,555.619 996.917,585.298 987.194,642.274C991.077,641.055 994.932,639.723 998.816,638.277C1002.76,636.775 1006.72,635.159 1010.67,633.43C1006.24,582.094 1005.17,555.222 1004.94,547.03Z" style="fill:rgb(245,214,121);"/>
            <path d="M1019.93,540.454L1021.52,628.356C1025.21,626.513 1028.89,624.557 1032.55,622.488C1036.32,620.391 1040.06,618.18 1043.83,615.855C1035.52,590.854 1027.7,565.625 1019.93,540.454Z" style="fill:rgb(245,214,121);"/>
            <path d="M1029.4,531.099L1055.42,608.258C1059.62,605.367 1063.81,602.334 1067.95,599.187C1072.15,596.013 1076.34,592.668 1080.51,589.209C1063.62,571.181 1045.53,549.808 1029.4,531.099Z" style="fill:rgb(245,214,121);"/>
            <path d="M1034.11,525.713L1089.87,581.159C1092.39,578.92 1094.94,576.595 1097.49,574.214C1099.98,571.89 1102.51,569.509 1104.97,567.071C1094.37,561.402 1083.43,555.335 1072.15,548.872C1061.52,542.75 1045.39,532.545 1034.11,525.713Z" style="fill:rgb(245,214,121);"/>
            <path d="M1079.09,536.769C1090.66,543.515 1102.11,550.261 1114.41,557.575L1115.75,556.186C1118.47,553.011 1121.07,549.893 1123.57,546.803C1125.92,543.883 1128.19,540.992 1130.34,538.101C1079.91,525.033 1053.16,518.939 1045.47,517.238C1057.27,524.041 1068.21,530.391 1079.09,536.769Z" style="fill:rgb(245,214,121);"/>
            <path d="M1053.58,506.665L1138.22,527.017C1140.38,523.843 1142.36,520.696 1144.23,517.606C1146.02,514.63 1147.66,511.71 1149.19,508.791C1094.49,507.373 1063.33,506.835 1053.58,506.665Z" style="fill:rgb(245,214,121);"/>
            <path d="M1055.42,493.512L1155.57,495.071C1157.22,490.961 1158.58,486.935 1159.62,483.024C1160.65,479.197 1161.41,475.455 1161.89,471.827L1055.42,493.512Z" style="fill:rgb(245,214,121);"/>
            <path d="M1056.7,478.772L1160.67,447.591C1159.68,443.679 1158.29,439.88 1156.51,436.224C1154.69,432.567 1152.45,429.024 1149.82,425.594L1056.7,478.772Z" style="fill:rgb(245,214,121);"/>
            <path d="M1047.6,468.255L1140.83,415.843C1137.83,413.093 1134.54,410.457 1130.91,407.906C1127.23,405.269 1123.2,402.775 1118.84,400.365L1047.6,468.255Z" style="fill:rgb(245,214,121);"/>
            <path d="M1144.38,368.901C1151.01,372.671 1157.61,376.072 1164.16,379.191C1170.71,382.28 1177.2,385.03 1183.66,387.468L1204.92,290.948L1144.38,368.901Z" style="fill:rgb(245,214,121);"/>
            <path d="M1217.2,297.043L1207.25,395.008C1215.13,397.049 1222.95,398.58 1230.72,399.628C1238.4,400.649 1246,401.187 1253.57,401.244L1217.2,297.043Z" style="fill:rgb(245,214,121);"/>
            <path d="M1232.62,296.702L1277.83,399.713C1283.98,398.863 1290.13,397.701 1296.23,396.198C1302.24,394.696 1308.22,392.882 1314.14,390.728L1232.62,296.702Z" style="fill:rgb(245,214,121);"/>
            <path d="M1243.96,295.257L1337.3,380.58C1341.98,378.17 1346.65,375.534 1351.3,372.671C1355.84,369.893 1360.38,366.888 1364.88,363.657L1243.96,295.257Z" style="fill:rgb(245,214,121);"/>
            <path d="M1257.65,289.871L1378.6,353.197C1380.36,351.751 1382.12,350.306 1383.87,348.803C1385.69,347.244 1387.5,345.657 1389.29,344.069C1390.73,341.83 1392.15,339.619 1393.48,337.436C1394.76,335.339 1395.98,333.269 1397.17,331.228L1257.65,289.871Z" style="fill:rgb(245,214,121);"/>
            <path d="M1264.31,279.213L1408.48,308.551C1410.12,304.611 1411.6,300.728 1412.87,296.901C1414.15,293.102 1415.23,289.361 1416.13,285.647L1264.31,279.213Z" style="fill:rgb(245,214,121);"/>
            <path d="M1267.88,259.994L1419.42,265.266C1419.85,259.228 1419.76,253.276 1419.19,247.465C1418.6,241.654 1417.52,235.928 1415.93,230.315L1267.88,259.994Z" style="fill:rgb(245,214,121);"/>
            <path d="M1268.42,243.836L1410.21,215.008C1408.19,210.699 1405.84,206.447 1403.18,202.252C1400.46,198 1397.42,193.833 1394.05,189.723L1268.42,243.836Z" style="fill:rgb(245,214,121);"/>
            <path d="M1257.16,233.915L1382.43,177.109C1378.52,173.31 1374.29,169.569 1369.76,165.912C1365.16,162.17 1360.23,158.485 1354.99,154.885L1257.16,233.915Z" style="fill:rgb(245,214,121);"/>
        </g>
    </g>
</svg>
