<svg viewBox="0 0 2434 1435" xmlns="http://www.w3.org/2000/svg" fill-rule="evenodd" clip-rule="evenodd" stroke-linejoin="round" stroke-miterlimit="2"><path d="M1136.504 400.515c-25.99 19.106-28.79 61.172 31.64 89.207 1.1.51.88.68 1.45-.341 31.06-53.801 82.51-127.9 153.78-105.845 15.81 4.904 27.63 14.54 35.46 27.156 1.24 2.04.76 2.154 2.18.17 62.84-88.98 38.78-89.093 141.7-89.065 5.64 0 4.79-.964 4.79 4.62 0 5.528.03 11.056.03 16.583 0 1.956-.22 2.098.85.369 6.61-10.46 13.21-20.892 19.79-31.351 2.75-4.337 1.98-3.317 7.28-3.317 85.35 0 181.33-21.6 228.59 68.06 1.3 2.466 1.05 2.89 1.59.057 1.53-7.852 7.91-9.383 14.91-13.92 55.9-36.17 77.84-73.331 117.97-124.354 1.02-1.276.8-1.248.94.368 2.86 32.145 5.7 64.318 8.56 96.463 2.55 28.772 5.95 57.713 10.52 86.513 1.24 7.796.39 7.002 3.99.737 11.46-19.9 28.41-35.66 52.56-39.77 27.72-4.705 53.32 8.363 74.12 25.455 18.83 15.478 35.52 35.207 50.15 54.652 18.48 24.52 34.61 50.117 50.17 76.366 7.09-22.904 25.03-36.482 49.35-40.224 21.26-3.231 45.53-1.134 66.76 1.644l35.63 4.677c-.45 11.849-.91 23.698-1.33 35.547-4.14 109.53-8.25 219.033-12.42 328.564-.28 7.256-.56 14.54-.82 21.798-.14 3.118-.65 2.55 1.7 4.422 36.94 29.509 72.31 61.172 106.16 94.45 8.65 8.5 17.29 17.01 25.94 25.48 34.04 40.48-5.7 80.65-47.17 55.37-9.75-7.2-19.53-14.38-29.28-21.58-329.7-242.841-680.4-270.876-1050.16-98.53-118.6 63.47-230.37 141-343.1 214.27-148.2 96.32-304.272 190.92-475.938 238.37-84.019 23.21-169.71 34.35-256.904 30.7-607.181-88.73 259.568 1.24 141.761-587.768-3.884-19.445-11.367-38.494-17.519-57.316-8.929-27.156-14.258-53.121-13.861-81.865.964-66.415 21.713-86.286 41.017-143.83 3.033-9.014 11.707-38.211 8.277-47.48-7.285-13.294-19.474-26.674-29.877-37.616-25.823-27.042-51.108-54.822-73.672-84.7-32.315-42.802-43.2-71.63-39.118-125.857.623-8.221 1.871-16.384 4.138-24.293-11.367 4.564-22.819 9.014-34.271 13.379-102.415 38.92-92.692 49.01-49.804-51.79 26.617-62.531 56.012-124.326 89.716-183.372 15.052-26.39 8.022-22.82 38.211-19.474 72.624 8.107 147.94 19.19 218.438 38.778 108.057 30.047 106.328 16.1 8.844 71.547-22.252 12.642-156.245 76.847-130.649 78.293l296.476.595c78.916.056 157.865.142 236.775.227 33.14 2.324 72 4.08 123.45-27.326 26.9-21.742 50.68-40.961 77.61-62.703 1.96-1.587 7.03-1.73 9.41-.368 131.87 75.26 105.54 228.982 13.21 299.168z"/><path d="M278.632 41.11c-29.849 52.328-59.074 112.11-87.676 179.32 102.019-38.778 201.997-86.003 299.962-141.732-55.757-15.506-126.51-28.035-212.286-37.588zm1.474 1310.036c-29.622-5.76-56.381-14.26-80.278-25.54-16.44 10.12-34.837 19.58-55.162 28.48-20.012 8.74-41.924 16.87-65.678 24.44 42.633 9.01 89.489 14.63 140.598 16.75 403.824 16.95 720.198-299.37 1056.838-479.28 386.73-180.596 751.78-147.657 1090.78 102.05-312.78-307.477-670.34-387.953-1072.72-178.558-261.19 135.922-637.569 516.018-916.555 520.698v-.37c-.028 4-88.951-6.94-97.823-8.67z" fill="#f5d679"/><path d="M606.6 1088.396c-12.983 69.79-25.455 134.11-37.474 192.93 12.473-8.19 23.669-15.08 33.591-20.64 10.063-5.64 18.822-9.95 26.277-12.92-.992-14.74-1.503-27.81-1.503-39.21 0-11.45.511-21.23 1.531-29.31l.029-.17.113-.08c19.474-14.77 37.247-27.38 53.32-37.87 15.959-10.38 30.245-18.66 42.859-24.81a193.38 193.38 0 01-8.73-25.2c-2.24-8.39-3.912-16.83-4.933-25.37-9.807 7.32-20.948 14.77-33.42 22.4-12.699 7.74-26.787 15.67-42.265 23.72l-.652.34.114-.73c6.406-39.43 12.359-77.08 17.915-112.94 5.527-35.797 10.601-69.7 15.193-101.646l.057-.312h.312c10.545-.198 21.43-.68 32.627-1.502h.34l.057.312c20.778 107.628 45.411 198.908 73.956 273.858 13.66-12.7 24.86-22.94 33.62-30.67 8.62-7.69 14.82-12.93 18.65-15.76-24.43-43.35-44.82-92.98-61.14-148.88-16.359-55.928-28.633-118.148-36.853-186.662l-19.021-1.19-6.321 8.702v.028a348.214 348.214 0 01-26.759 35.178 354.169 354.169 0 01-31.039 31.55c-13.947 81.099-27.44 156.724-40.451 226.854zm261.864-295.679l-5.41 309.879 57.6-44.39-.51-216.733-51.68-48.756z" fill="#f5d679"/><path d="M908.684 792.859c25.15 26.107 48.76 54.793 70.84 86.03 22 31.125 42.49 64.8 61.49 100.999 15.59-15.533 31.57-26.787 47.99-33.76.65-77.698 3.11-224.25 7.4-439.597-9.98 14.202-21.21 28.772-33.68 43.767-12.67 15.194-26.65 30.812-41.9 46.828 12.9 4.536 22.09 15.449 27.58 32.797 8.85 28.006 8.85 205.965 2.19 213.109-2.5 2.664-6.64.935-12.42-5.16l-.03-.056c-31.52-43.795-58.68-79.285-81.49-106.47-22.82-27.184-41.28-46.062-55.39-56.607l-.03-.03c-9.3-8.644-17.89-13.633-25.8-14.937-7.88-1.304-15.1 1.049-21.65 7.03l-.03.028c-7.71 5.726-16.16 15.307-25.37 28.715-9.1 13.266-18.96 30.274-29.57 51.052 19.82-4.195 38.84-2.494 57.07 5.102 18.42 7.682 36.02 21.402 52.8 41.16zm403.15-372.019c-90.65-28.035-255.46 281.678-89.95 268.299 60.24-1.446 98.48 36 67.1 92.04-6.15 11.68-14.74 21.402-25.74 29.169-20.95 14.825-65.76 34.158-67.24-8.334.15-6.292-1.19-8.985-2.86-11.338-1.19-1.673-2.52-2.636-4-2.891-20.74-3.515-50.74 82.544-46.31 117.892 16.44-11.083 37.36-25.171 62.81-42.236 60.75-40.762 126.88-73.701 144.68-151.738 23.59-103.267-46.32-110.693-128.24-109.73-1.22.029-2.72-.226-3.71-.595-54.31-22.48-10.63-162.538 51.99-120.586 8.1 5.443 12.53 14.514 13.18 27.24l47.25-59.923c-1.39-14.712-7.71-23.783-18.96-27.27zm98.33 39.996c.26 50.174.4 100.149.4 149.953 0 49.55-.14 99.298-.37 149.244 8.02-5.3 16.87-10.006 26.5-14.116 9.78-4.167 20.39-7.74 31.84-10.687.08-61.682.11-124.101.11-187.257 0-63.127-.03-125.518-.11-187.143h-24.18l-70.67 99.638c5.87.17 11.76.227 17.69.227 6.18 0 12.33-.085 18.42-.227l.37-.028v.396zm87.22-26.844l54.6-.992v275.414l56.61-3.43-.51-282.274c108.82-27.921 90.14 118.999 48.87 151.144-.51.425-1.02.822-1.53 1.19l-20.93 16.3c-1.89 2.239-2.12 6.576-1.18 8.503.16 1.276.62 2.212 1.36 2.75.76.567 1.81.737 3.2.567 54.93-6.973 180.51-197.15 34.3-255.43h-120.36l-54.43 86.258zm304.39-38.324c-16.7 86.598-45.33 187.115-85.86 301.52 10.43.285 20.35.285 29.76.03 9.41-.227 18.31-.737 26.67-1.474-.9-14.457-.25-25.115 2.02-31.92l.08-.254h.28c30.39-.255 53.55-.51 69.4-.765 14.48-.227 22.87-.454 25.2-.652-4.25-8.42-7.94-16.526-11.06-24.293-3.12-7.824-5.69-15.335-7.68-22.507l-68.4.51.08-.453c6.19-32.854 11.74-62.022 16.67-87.534 4.96-25.512 9.27-47.424 13.01-65.764l.06-.283h26.51v.368l.36-.057c5.45 29.339 13.64 63.582 24.61 102.728 10.94 39.09 24.63 83.055 41.07 131.896 15.34 4.167 30.19 8.476 44.56 12.926 14.03 4.309 27.58 8.759 40.68 13.323-32.77-44.447-59.22-98.646-79.31-162.54-20.16-64.09-33.96-137.99-41.36-221.668-7.06 8.929-16.1 18.085-27.13 27.439-11.31 9.58-24.72 19.389-40.22 29.424zm313 247.662c18.45 39.232 33.48 78.52 41.64 110.807v.029c5.78 22.847 8.14 42.207 5.84 55.587l-.06.283.29.114c16.89 7.37 32.45 15.817 46.68 25.37 14.23 9.524 27.16 20.183 38.72 31.918l.63.595c4.17-109.502 8.27-219.004 12.39-328.535l-.32-.028c-24.23-3.175-42.83-3.742-55.81-1.758-13.1 1.984-16.75 7.824-18.48 15.08v.029c-4.4 22.592 52.21 187.597 21.97 183.43-2.24-.312-4.82-4.366-7.71-12.104v-.03a1447.898 1447.898 0 00-76.94-151.794c-19.07-32.74-129.43-228.104-173-118.205-1.47 4.933 19.2 4.337 22.63 4.252 30.78-.595 98.5 93.515 141.53 184.96z" fill="#f5d679"/><path d="M2064.374 760.033c.82-62.9.65-118.63-.51-167.16-3.57-4.563-9.13-12.046-16.64-22.421-7.43-10.261-16.81-23.386-28.15-39.373l-3.43 207.723c10.66 1.984 20.1 4.762 28.29 8.362 7.97 3.515 14.8 7.795 20.44 12.869z" fill="#f5d679"/><path d="M926.854 267.145l.06 5.64c-9.92 59.302-43.94 94.196-105.7 102.162-57.745 7.455-131.19-18.17-184.34-38.92l-43.03-16.753c-27.042-1.956-56.693-2.721-85.238-1.73v8.647c0 25 2.07 50.995 4.848 75.855 2.523 22.649 5.924 47.367 12.104 69.364l.028.113.057.17c.198.766.397 1.559.595 2.353l233.688.283-1.757 12.388c-1.163 8.164-3.459 16.299-7.626 23.47-2.919 32.004-12.614 48.5-46.658 58.564-24.434 7.2-53.32 5.3-78.208 1.389-25.058-2.976-51.278-4.875-76.734-3.628l.057.85-1.077.029c1.928 86.995 2.126 174.67-2.495 261.524-5.64 106.016-28.176 210.1-36.396 315.86-2.693 34.62-4.564 69.62-4.139 104.35v.39c-.227 9.75.624 20.7 4.649 29.68 2.891 6.52 7.228 11.51 13.493 14.89l15.959 8.58-15.052 10.07c-42.52 28.43-246.869 37.16-301.011 7l-16.838-9.38 16.724-9.59c169.512-96.94 211.408-280.71 175.153-461.9-4.28-21.515-11.905-41.103-18.708-61.824-7.597-23.216-12.246-44.504-11.906-69.137.34-23.584 4.989-46.573 13.351-68.627 0-.028.029-.085.057-.141l.057-.17.056-.142c14.032-32.825 49.748-107.121 31.153-141.251-8.986-16.497-23.159-32.57-36.057-46.091-24.548-25.738-49.294-52.866-70.752-81.27-26.589-35.262-34.696-54.736-31.323-99.41.51-7.087 1.672-14.655 4.365-21.232l.085-.17v-.028c.312-.71.624-1.417.964-2.126 5.329-16.498 14.485-37.956 32.797-42.86 19.786-5.301 38.693 11.565 51.335 25.54l312.548.624 247.462.227 2.19 8.022c2.63 9.58 3.26 19.19 1.21 28.346z" fill="#fefefe"/><path d="M500.641 597.722c-2.324-29.17-5.811-56.892-10.46-83.141v-.028c-16.299-62.561-47.168-118.091-88.838-167.33-3.288-3.43-13.011-11.876-10.828-17.234.68-1.616 2.183-2.948 4.507-3.997 60.718-27.212 203.669-22.563 271.247-8.42 42.237 4.792 80.589 5.898 115.085 3.346 34.5-2.551 65.14-8.76 91.93-18.68l.11.369-.11-.37c17.89-6.178 30.3-14.342 37.25-24.49 6.89-10.063 8.44-22.082 4.62-36.085l-239.162-.227-313.965-.624c-14.513-3.033-31.975-5.754-46.828-4.167-11.679 1.248-19.588 5.103-23.698 11.566l-.028.056c-1.163 1.418-2.183 3.204-3.09 5.3 0 .058-.029.086-.029.143-1.842 4.45-3.061 10.43-3.6 17.887-3.174 42.094 3.969 58.677 29.169 92.04 16.242 21.515 39.543 48.303 69.931 80.334 17.433 18.085 30.019 34.243 37.729 48.388 21.033 38.636-13.748 111.146-30.699 150.746-8.107 21.402-12.303 43.058-12.643 64.942-.737 50.995 20.891 81.042 30.416 128.664 36.992 184.936-6.01 373.746-180.425 473.496 36.453 20.33 75.996 21.23 115.88 20.73 19.559-34.73 40.224-72.51 55.134-104.18 23.074-49.04 62.419-145.84 76.507-196.04 10.772-38.33 19.361-79.826 25.824-124.5 3.911-28.857 6.066-61.313 6.491-97.37.652-55.417-2.863-153.411-7.427-211.124z" fill="#ea1c30"/><path d="M315.199 236.644c13.436-1.445 28.998.652 42.604 3.289-35.461-40.508-56.324-27.78-69.619 14.173.596-1.162 2.495-4.847 3.289-5.84l.028-.056c4.11-6.463 12.019-10.318 23.698-11.566zm181.105 82.12c-12.416-1.077-25.739-.595-39.912 1.446-14.145 2.04-29.197 5.612-45.099 10.743 103.89 122.797 110.069 198.51 112.394 338.457.793 46.998.397 104.37-1.219 172.176v.028c-3.685 38.778-10.772 84.926-21.232 138.445-8.447 43.227-63.099 223.767-65.99 270.227-1.644 26.31 4.989 54.17 16.214 75.06 32.939-4.73 56.126-11.4 69.165-20.1-8.22-4.42-17.064-12.67-21.033-21.6-4.053-9.12-5.924-20.58-5.584-34.38v-.03c-.368-29.85 1.02-64.94 4.167-105.28 8.305-107.09 30.756-209.62 36.397-315.636 3.997-75.061 4.734-165.572 2.211-271.56h.397l-.057-.368c25.115-2.182 55.162-1.19 90.085 2.977 30.416 4.79 54.964 4.45 73.616-1.077 18.227-5.358 30.841-15.704 37.842-30.955-20.296 8.958-47.763 14.315-82.403 16.016-35.121 1.729-77.641-.255-127.559-6.01l-.34-.028.028-.368c-2.239-22.791-8.022-41.613-13.323-62.59-11.083-39.401-18.793-117.75-18.765-155.593z" fill="#74382d"/><path d="M671.173 524.333c30.388-.823 48.87-2.977 55.446-6.463l.028-.03c5.755-2.55 10.375-6.604 13.833-12.103 3.43-5.414 5.726-12.274 6.917-20.551l-214.639-.255c2.693 7.852 5.017 14.939 6.973 21.23 1.927 6.294 3.486 11.85 4.649 16.612 54.141 1.87 96.406 2.382 126.793 1.56z" fill="#ea1c30"/><path d="M819.824 364.147c45.27-5.84 76.16-29.027 92.66-69.562-20.89 18.68-53.91 30.954-99.1 36.765-45.44 5.868-102.554 1.672-172.57-5.443 74.325 28.97 133.6 44.107 179.01 38.24z" fill="#74382d"/><path d="M756.666 535.189l-94.875 106.555c4.45.595 8.9 1.077 13.351 1.417 4.62.34 9.212.538 13.776.567l67.748-108.54zm3.6 2.353c-4.762 9.723-23.272 50.542-48.245 105.052 4.025-.425 8.022-.964 12.047-1.644 4.11-.68 8.249-1.503 12.387-2.466 11.027-51.704 21.373-91.134 23.811-100.942zm10.008 1.304c-2.1 8.589-8.023 38.268-17.746 95.244a234.944 234.944 0 0011.622-3.997 263.068 263.068 0 0011.854-4.847c-4.43-51.336-5.5-78.208-5.73-86.4zm14.99-6.576l1.59 87.902c3.69-1.843 7.37-3.8 11.03-5.868 3.77-2.097 7.51-4.308 11.28-6.633-8.31-25.001-16.13-50.23-23.9-75.401zm9.47-9.355l26.02 77.159c4.2-2.891 8.39-5.924 12.53-9.071 4.2-3.174 8.39-6.52 12.56-9.978-16.89-18.028-34.98-39.401-51.11-58.11zm4.71-5.386l55.76 55.446a418.11 418.11 0 007.62-6.945c2.49-2.324 5.02-4.705 7.48-7.143a1287.06 1287.06 0 01-32.82-18.2c-10.63-6.121-26.76-16.326-38.04-23.158zm44.98 11.056a4710.252 4710.252 0 0135.32 20.806l1.34-1.39c2.72-3.174 5.32-6.292 7.82-9.382 2.35-2.92 4.62-5.811 6.77-8.702-50.43-13.068-77.18-19.162-84.87-20.863 11.8 6.803 22.74 13.153 33.62 19.53zm-25.51-30.105l84.64 20.353c2.16-3.174 4.14-6.321 6.01-9.411 1.79-2.976 3.43-5.896 4.96-8.815-54.7-1.418-85.86-1.956-95.61-2.126zm1.84-13.152l100.15 1.559c1.65-4.11 3.01-8.136 4.05-12.047 1.03-3.827 1.79-7.57 2.27-11.197l-106.47 21.685zm1.28-14.74l103.97-31.181a59.006 59.006 0 00-4.16-11.367c-1.82-3.657-4.06-7.2-6.69-10.63l-93.12 53.178zm-9.1-10.518l93.23-52.411c-3-2.75-6.29-5.386-9.92-7.937-3.68-2.637-7.71-5.131-12.07-7.541l-71.24 67.89zm96.78-99.353c6.63 3.77 13.23 7.17 19.78 10.29a265.251 265.251 0 0019.5 8.277l21.26-96.52-60.54 77.953zm72.82-71.858l-9.95 97.965a200.49 200.49 0 0023.47 4.62 183.549 183.549 0 0022.85 1.616l-36.37-104.201zm15.42-.341l45.21 103.01c6.15-.85 12.3-2.011 18.4-3.514a180 180 0 0017.91-5.47l-81.52-94.026zm11.34-1.445l93.34 85.323a210.69 210.69 0 0014-7.91c4.54-2.777 9.08-5.782 13.58-9.013l-120.92-68.4zm13.69-5.386l120.95 63.326c1.76-1.446 3.52-2.891 5.27-4.394a422.86 422.86 0 005.42-4.734c1.44-2.24 2.86-4.45 4.19-6.633 1.28-2.097 2.5-4.167 3.69-6.208l-139.52-41.357zm6.66-10.658l144.17 29.338c1.64-3.94 3.12-7.823 4.39-11.65 1.28-3.8 2.36-7.54 3.26-11.254l-151.82-6.434zm3.57-19.219l151.54 5.272c.43-6.038.34-11.99-.23-17.801a99.843 99.843 0 00-3.26-17.15l-148.05 29.679zm.54-16.158l141.79-28.828c-2.02-4.31-4.37-8.561-7.03-12.756-2.72-4.252-5.76-8.42-9.13-12.53l-125.63 54.114zm-11.26-9.922l125.27-56.805c-3.91-3.8-8.14-7.54-12.67-11.197-4.6-3.742-9.53-7.427-14.77-11.027l-97.83 79.03z" fill="#f5d679"/></svg>