<svg viewBox="0 0 151 51" xmlns="http://www.w3.org/2000/svg" fill-rule="evenodd" clip-rule="evenodd" stroke-linejoin="round" stroke-miterlimit="2"><path fill="#3b3b3b" d="M48.085 33.717h21.641v5.904H48.085zm0-11.267h21.641v5.904H48.085zm0-11.24h21.641v5.902H48.085zm61.148-.386h5.19v29.14h-5.19zm0-10.186h5.19V6.54h-5.19z"/><path d="M23.013 10.476H.053v5.903h8.885v23.24h5.19v-23.24h8.885v-5.903zm115.133 14.946l12.811-14.571h-7.34l-9.142 10.395-9.14-10.395h-7.34l12.81 14.57-12.81 14.571h7.34l9.14-10.397 9.141 10.397h7.341l-12.81-14.57zM77.46 10.474v29.141h5.19V16.377h2.596c7.153 0 12.976 6.62 12.976 14.757v8.481h5.187v-8.481c0-11.391-8.149-20.66-18.163-20.66h-7.785zM32.088 30.91c2.098 6.944.147 12.814-5.178 19.49h5.854c4.756-3.798 7.796-12.913 4.98-22.238l-.02-.044-2.443-8.152C33.184 13.02 35.134 7.15 40.462.475h-5.856c-4.762 3.797-7.796 12.914-4.98 22.238l2.443 8.152.019.044z" fill="#3b3b3b" fill-rule="nonzero"/></svg>