<?xml version="1.0" encoding="UTF-8" standalone="no"?>
<!DOCTYPE svg PUBLIC "-//W3C//DTD SVG 1.1//EN" "http://www.w3.org/Graphics/SVG/1.1/DTD/svg11.dtd">
<svg width="100%" height="100%" viewBox="0 0 151 51" version="1.1" xmlns="http://www.w3.org/2000/svg" xmlns:xlink="http://www.w3.org/1999/xlink" xml:space="preserve" xmlns:serif="http://www.serif.com/" style="fill-rule:evenodd;clip-rule:evenodd;stroke-linejoin:round;stroke-miterlimit:2;">
    <g transform="matrix(1,0,0,1,-1676,-5300)">
        <g transform="matrix(0.225114,0,0,0.338527,0,1763.06)">
            <g transform="matrix(1.80524,0,0,0.921481,4806.83,4340.3)">
                <g transform="matrix(2.79194,0,0,4.13645,1419.71,-6952.17)">
                    <rect x="57.334" y="3309.22" width="19.074" height="4.575" style="fill:rgb(59,59,59);"/>
                </g>
                <g transform="matrix(2.79194,0,0,4.13645,1419.71,-7024.36)">
                    <rect x="57.334" y="3317.94" width="19.074" height="4.576" style="fill:rgb(59,59,59);"/>
                </g>
                <g transform="matrix(2.79194,0,0,4.13645,1419.71,-7096.42)">
                    <rect x="57.334" y="3326.65" width="19.074" height="4.574" style="fill:rgb(59,59,59);"/>
                </g>
                <g transform="matrix(2.79194,0,0,4.13645,1419.71,-7024.36)">
                    <rect x="111.228" y="3308.93" width="4.574" height="22.583" style="fill:rgb(59,59,59);"/>
                </g>
                <g transform="matrix(2.79194,0,0,4.13645,1419.71,-7164.23)">
                    <rect x="111.228" y="3334.85" width="4.574" height="4.574" style="fill:rgb(59,59,59);"/>
                </g>
                <g transform="matrix(2.79194,0,0,4.13645,1518.09,6755.17)">
                    <path d="M0,-22.585L-20.237,-22.585L-20.237,-18.01L-12.406,-18.01L-12.406,0L-7.832,0L-7.832,-18.01L0,-18.01L0,-22.585Z" style="fill:rgb(59,59,59);fill-rule:nonzero;"/>
                </g>
                <g transform="matrix(2.79194,0,0,4.13645,1801.4,6709.66)">
                    <path d="M0,0L11.291,-11.292L4.821,-11.292L-3.236,-3.236L-11.291,-11.292L-17.761,-11.292L-6.47,-0.001L-17.761,11.292L-11.291,11.292L-3.236,3.234L4.821,11.292L11.291,11.292L0,0Z" style="fill:rgb(59,59,59);fill-rule:nonzero;"/>
                </g>
                <g transform="matrix(2.79194,0,0,4.13645,1652.07,6755.16)">
                    <path d="M0,-22.584L0,0L4.573,0L4.573,-18.009L6.862,-18.009C13.166,-18.009 18.298,-12.879 18.298,-6.573L18.298,0L22.87,0L22.87,-6.573C22.87,-15.401 15.688,-22.584 6.862,-22.584L0,-22.584Z" style="fill:rgb(59,59,59);fill-rule:nonzero;"/>
                </g>
                <g transform="matrix(2.79194,0,0,4.13645,1540.42,6692.17)">
                    <path d="M0,8.481C1.849,13.863 0.13,18.412 -4.564,23.586L0.596,23.586C4.788,20.643 7.467,13.579 4.985,6.352L4.968,6.318L2.814,0C0.966,-5.382 2.685,-9.931 7.381,-15.105L2.219,-15.105C-1.978,-12.162 -4.652,-5.097 -2.17,2.129L-0.017,8.447L0,8.481Z" style="fill:rgb(59,59,59);fill-rule:nonzero;"/>
                </g>
            </g>
        </g>
    </g>
</svg>
